<?xml version="1.0"?>
<svg xmlns="http://www.w3.org/2000/svg" height="512px" viewBox="0 -32 479.99995 479" width="512px"><path d="m448.480469 237.820312-.066407-.0625c-5.042968-4.832031-10.539062-9.167968-16.414062-12.945312v-168.3125c-.039062-30.910156-25.089844-55.960938-56-56-14.863281-.066406-29.128906 5.851562-39.574219 16.425781-1.195312 1.183594-2.289062 2.398438-3.441406 3.726563-8.394531 10.058594-12.992187 22.746094-12.984375 35.847656v168.304688c-28.09375 17.851562-45.863281 48.148437-47.726562 81.382812-.183594 2.082031-.273438 4.234375-.273438 6.3125.042969 47.242188 31.925781 88.523438 77.625 100.503906 45.699219 11.980469 93.730469-8.34375 116.949219-49.488281s15.785156-92.769531-18.09375-125.695313zm14.398437 88.632813c-7.292968 45.285156-48.152344 77.375-93.878906 73.726563-45.722656-3.648438-80.976562-41.808594-81-87.679688 0-1.597656.070312-3.28125.222656-5.160156 1.617188-29.589844 18.09375-56.351563 43.785156-71.121094l4-2.300781v-177.417969c-.011718-9.320312 3.246094-18.351562 9.199219-25.519531.800781-.96875 1.601563-1.855469 2.5625-2.769531 7.453125-7.539063 17.628907-11.761719 28.230469-11.710938 22.082031.027344 39.972656 17.921875 40 40v177.402344l4 2.308594c6.269531 3.664062 12.085938 8.058593 17.320312 13.089843 17.089844 16.578125 26.71875 39.386719 26.679688 63.199219.011719 4.671875-.359375 9.339844-1.105469 13.953125zm0 0" fill="#FFFFFF"/><path d="m400 261.980469v-197.480469c-.066406-13.226562-10.773438-23.933594-24-24-13.253906 0-24 10.746094-24 24v197.441406c-23.617188 11.246094-36.300781 37.34375-30.554688 62.863282 5.746094 25.519531 28.394532 43.660156 54.554688 43.695312 6.261719-.011719 12.476562-1.050781 18.398438-3.078125 14.238281-4.980469 25.871093-15.480469 32.273437-29.136719 3.550781-7.425781 5.371094-15.554687 5.328125-23.785156.03125-14.105469-5.308594-27.695312-14.9375-38.007812-4.851562-5.203126-10.640625-9.445313-17.0625-12.511719zm-24-205.480469c2.160156-.003906 4.222656.886719 5.703125 2.457031 1.488281 1.460938 2.316406 3.460938 2.296875 5.542969v96h-16v-96c0-4.417969 3.582031-8 8-8zm36.183594 272.945312c-4.554688 9.742188-12.84375 17.238282-22.992188 20.800782-4.246094 1.460937-8.699218 2.222656-13.191406 2.253906-19.417969-.074219-35.976562-14.082031-39.265625-33.214844-3.292969-19.136718 7.628906-37.875 25.90625-44.433594l5.359375-1.871093v-96.480469h16v96.425781l5.296875 1.902344c6.117187 2.191406 11.621094 5.8125 16.054687 10.558594 6.863282 7.359375 10.667969 17.050781 10.648438 27.113281.027344 5.863281-1.277344 11.65625-3.816406 16.945312zm0 0" fill="#FFFFFF"/><path d="m264 96.5h32v16h-32zm0 0" fill="#FFFFFF"/><path d="m248 160.5h48v16h-48zm0 0" fill="#FFFFFF"/><path d="m264 216.5h32v16h-32zm0 0" fill="#FFFFFF"/><path d="m192 96.5c0-22.089844-17.910156-40-40-40s-40 17.910156-40 40h16c0-13.253906 10.746094-24 24-24s24 10.746094 24 24-10.746094 24-24 24h-128v16h128c22.082031-.027344 39.972656-17.917969 40-40zm0 0" fill="#FFFFFF"/><path d="m0 160.5h144v16h-144zm0 0" fill="#FFFFFF"/><path d="m160 160.5h32v16h-32zm0 0" fill="#FFFFFF"/><path d="m200 200.5h-176v16h176c13.253906 0 24 10.746094 24 24s-10.746094 24-24 24-24-10.746094-24-24h-16c0 22.09375 17.910156 40 40 40s40-17.90625 40-40c0-22.089844-17.910156-40-40-40zm0 0" fill="#FFFFFF"/><path d="m104 240.5h-104v16h104c13.253906 0 24 10.746094 24 24s-10.746094 24-24 24-24-10.746094-24-24h-16c0 22.09375 17.910156 40 40 40s40-17.90625 40-40c0-22.089844-17.910156-40-40-40zm0 0" fill="#FFFFFF"/></svg>
