<svg xmlns="http://www.w3.org/2000/svg" width="512" height="512" viewBox="0 0 311.469 311.469"><path d="M148.505 55.15V25.046c0-3.984 3.233-7.224 7.224-7.224s7.224 3.234 7.224 7.224V55.15c0 3.984-3.239 7.227-7.224 7.227s-7.224-3.242-7.224-7.227zM67.221 96.977a7.175 7.175 0 0 0 5.104 2.108 7.18 7.18 0 0 0 5.104-2.114c2.822-2.834 2.822-7.398 0-10.214L51.548 60.87a7.238 7.238 0 0 0-10.22 0 7.238 7.238 0 0 0 0 10.22l25.893 25.887zm-53.287 72.334h32.504a7.217 7.217 0 0 0 7.224-7.224c0-3.98-3.234-7.224-7.224-7.224H13.934a7.225 7.225 0 0 0 0 14.448zm85.416 5.327c-.892-4.06-1.408-8.227-1.408-12.545 0-31.858 25.929-57.787 57.787-57.787 31.861 0 57.79 25.929 57.79 57.787 0 4.318-.517 8.491-1.411 12.545h14.693c.721-4.084 1.165-8.251 1.165-12.545 0-39.826-32.413-72.237-72.237-72.237-39.827 0-72.238 32.411-72.238 72.237 0 4.275.441 8.455 1.162 12.545H99.35zm128.268-75.553c1.855 0 3.698-.7 5.116-2.108l25.88-25.887c2.822-2.822 2.822-7.404 0-10.22s-7.397-2.816-10.22 0l-25.881 25.887c-2.822 2.816-2.822 7.392 0 10.214a7.209 7.209 0 0 0 5.105 2.114zm18.663 63.008a7.229 7.229 0 0 0 7.229 7.225h38.532a7.225 7.225 0 1 0 0-14.449H253.51a7.229 7.229 0 0 0-7.229 7.224zm57.958 28.595H11.697a7.232 7.232 0 0 0-7.232 7.235c0 3.969 3.246 7.224 7.232 7.224h292.542c3.987 0 7.229-3.242 7.229-7.224a7.233 7.233 0 0 0-7.229-7.235zm-4.473 43.348H7.221A7.214 7.214 0 0 0 0 241.261c0 3.975 3.237 7.224 7.221 7.224h292.545a7.224 7.224 0 1 0 0-14.449zm0 45.151H7.221A7.217 7.217 0 0 0 0 286.411c0 3.981 3.237 7.236 7.221 7.236h292.545c3.993 0 7.224-3.249 7.224-7.236a7.212 7.212 0 0 0-7.224-7.224z" fill="#FFF"/></svg>