<svg xmlns="http://www.w3.org/2000/svg" viewBox="0 0 387.163 387.163" width="512" height="512"><g fill="#FFF"><path d="M379.662 221.953h-94.195c-3.83-47.34-43.576-84.692-91.886-84.692s-88.056 37.352-91.886 84.692H7.5a7.5 7.5 0 0 0 0 15h372.163a7.5 7.5 0 1 0-.001-15zm-262.912 0c3.784-39.058 36.797-69.692 76.831-69.692 40.033 0 73.047 30.635 76.831 69.692H116.75zM340.664 259.581H46.498a7.5 7.5 0 0 0 0 15h294.166a7.5 7.5 0 0 0 7.5-7.5 7.5 7.5 0 0 0-7.5-7.5zM300.166 297.21H86.996a7.5 7.5 0 0 0 0 15h213.17a7.5 7.5 0 0 0 7.5-7.5 7.5 7.5 0 0 0-7.5-7.5zM193.578 118.953a7.5 7.5 0 0 0 7.499-7.5v-29a7.5 7.5 0 1 0-14.999 0v29a7.5 7.5 0 0 0 7.5 7.5zM137.108 125.571a7.5 7.5 0 0 0 6.808 4.345 7.5 7.5 0 0 0 6.798-10.659l-12.206-26.306a7.499 7.499 0 0 0-9.96-3.646 7.5 7.5 0 0 0-3.646 9.96l12.206 26.306zM76.486 140.265l22.145 18.725a7.47 7.47 0 0 0 4.839 1.773 7.5 7.5 0 0 0 4.846-13.227l-22.145-18.725a7.498 7.498 0 0 0-10.569.885 7.499 7.499 0 0 0 .884 10.569z"/><path d="M49.825 197.836l27.969 7.664a7.493 7.493 0 0 0 9.215-5.252 7.499 7.499 0 0 0-5.251-9.215l-27.969-7.664a7.5 7.5 0 0 0-3.964 14.467zM240.087 129.217a7.477 7.477 0 0 0 3.152.699 7.502 7.502 0 0 0 6.809-4.345l12.206-26.306a7.5 7.5 0 0 0-3.647-9.96 7.498 7.498 0 0 0-9.961 3.646l-12.206 26.306a7.5 7.5 0 0 0 3.647 9.96zM283.687 160.763a7.47 7.47 0 0 0 4.839-1.773l22.145-18.725a7.5 7.5 0 0 0-9.685-11.454l-22.145 18.725a7.5 7.5 0 0 0 4.846 13.227zM300.146 200.248a7.504 7.504 0 0 0 7.229 5.52c.655 0 1.322-.087 1.986-.268l27.97-7.664a7.5 7.5 0 0 0 5.251-9.215 7.496 7.496 0 0 0-9.216-5.251l-27.97 7.664a7.498 7.498 0 0 0-5.25 9.214z"/></g></svg>